<svg width="199" height="25" viewBox="0 0 199 25" fill="none" xmlns="http://www.w3.org/2000/svg">
<path d="M12.4583 0C5.58823 0 0 5.60694 0 12.5C0 19.3931 5.58823 25 12.4583 25C19.3283 25 24.9166 19.3931 24.9166 12.5C24.9166 5.60694 19.3262 0 12.4583 0ZM12.4583 24.3922C5.92186 24.3922 0.605794 19.0583 0.605794 12.5C0.605794 5.94168 5.92186 0.60562 12.4583 0.60562C18.9947 0.60562 24.3108 5.93948 24.3108 12.4978C24.3108 19.0561 18.9925 24.39 12.4583 24.39V24.3922Z" fill="#FDC490"/>
<path d="M20.1218 4.82216C19.2284 3.92584 18.199 3.19909 17.0643 2.66395C15.9668 2.14642 14.7969 1.82268 13.5875 1.69716L13.0015 1.6377L21.5748 16.6483H20.4334L11.8075 1.65972L11.6187 1.67293C11.555 1.67734 11.4914 1.68394 11.4299 1.69055C8.93213 1.92839 6.57919 3.04273 4.80351 4.82436C1.62309 8.01323 0.740735 12.9132 2.60421 17.0138L2.84785 17.549L11.555 2.43051L12.106 3.38629L3.51071 18.322L3.4712 18.3925V18.562L3.51949 18.6369C3.54144 18.6699 3.56338 18.703 3.58533 18.736C3.9453 19.2535 4.35575 19.7424 4.80351 20.1917C6.84916 22.2442 9.56865 23.3762 12.4615 23.3762C15.3544 23.3762 18.0739 22.2464 20.1196 20.1917C20.5673 19.7424 20.9778 19.2535 21.3377 18.736L21.6714 18.2581H4.24381L4.82107 17.2539H22.2069L22.2881 17.0821C22.2991 17.0579 22.3101 17.0359 22.3189 17.0116L22.3233 17.0006C24.1779 12.9022 23.2934 8.00662 20.1174 4.82216H20.1218ZM2.92247 16.2078C1.47822 12.4552 2.37155 8.12114 5.23151 5.2516C6.76575 3.71222 8.75653 2.70138 10.8922 2.36664L2.92247 16.2078ZM20.4905 18.8659C20.2425 19.1787 19.9769 19.4804 19.6938 19.7623C17.7622 21.7002 15.1942 22.7683 12.4615 22.7683C9.72888 22.7683 7.16084 21.7002 5.22932 19.7623C4.94618 19.4782 4.68059 19.1787 4.43257 18.8659H20.4883H20.4905ZM12.4528 3.99411L19.7333 16.6483H5.17225L12.4528 3.99411ZM22.0094 16.1902L14.1209 2.37986C15.0493 2.53181 15.9514 2.8115 16.8053 3.21231C17.8786 3.71883 18.8487 4.40373 19.6938 5.24939C22.5471 8.11233 23.4427 12.4376 22.0094 16.188V16.1902Z" fill="#FDC490"/>
<path d="M37.7353 13.2131C39.219 13.6243 40.238 14.6432 40.238 16.3415C40.238 18.6297 38.4503 19.8096 36.1442 19.8096H31.8896V7.29593H35.8761C38.1822 7.29593 39.5944 8.65455 39.5944 10.5316C39.5944 11.7651 38.9151 12.6947 37.7353 13.1595V13.2131ZM35.8761 8.26127H32.8371V12.8556H35.8761C37.6459 12.8556 38.647 11.8902 38.647 10.5316C38.647 9.19085 37.6459 8.26127 35.8761 8.26127ZM36.1442 18.8621C37.914 18.8621 39.2905 18.1113 39.2905 16.3415C39.2905 14.5538 37.914 13.7851 36.1442 13.7851H32.8371V18.8621H36.1442ZM52.9467 19.8096H51.8384L48.567 14.536C48.3346 14.5538 48.0843 14.5717 47.834 14.5717H45.2955V19.8096H44.3481V7.29593H47.834C50.5691 7.29593 52.2138 8.63668 52.2138 10.9428C52.2138 12.6947 51.2485 13.8924 49.5681 14.3572L52.9467 19.8096ZM45.2955 13.6243H47.834C50.0328 13.6243 51.2663 12.7125 51.2663 10.9428C51.2663 9.1551 50.0328 8.26127 47.834 8.26127H45.2955V13.6243ZM65.3141 19.8096L64.0092 16.3058H58.3065L57.0015 19.8096H55.9825L60.6483 7.29593H61.6673L66.3331 19.8096H65.3141ZM58.664 15.3404H63.6516L61.1668 8.67243L58.664 15.3404ZM78.823 7.29593H79.7705V19.8096H78.823L71.2076 8.9227V19.8096H70.2601V7.29593H71.2076L78.823 18.1828V7.29593ZM88.3402 7.29593C91.9155 7.29593 94.5077 9.97743 94.5077 13.5528C94.5077 17.1281 91.9155 19.8096 88.3402 19.8096H84.604V7.29593H88.3402ZM88.3402 18.8621C91.3971 18.8621 93.5602 16.6097 93.5602 13.5528C93.5602 10.5137 91.3971 8.26127 88.3402 8.26127H85.5515V18.8621H88.3402ZM114.205 19.8096L112.9 16.3058H107.198L105.893 19.8096H104.874L109.54 7.29593H110.558L115.224 19.8096H114.205ZM107.555 15.3404H112.543L110.058 8.67243L107.555 15.3404ZM120.117 18.8621H125.927V19.8096H119.151V7.29593H120.117V18.8621ZM135.656 19.0766C137.336 19.0766 138.784 18.3258 139.75 17.146L140.554 17.6823C139.41 19.1124 137.658 20.042 135.656 20.042C132.081 20.042 129.328 17.1281 129.328 13.5528C129.328 9.97743 132.081 7.08141 135.656 7.08141C137.658 7.08141 139.41 7.99312 140.554 9.44113L139.75 9.95955C138.784 8.77969 137.336 8.02887 135.656 8.02887C132.599 8.02887 130.293 10.5137 130.293 13.5528C130.293 16.6097 132.599 19.0766 135.656 19.0766ZM152.816 7.29593H153.781V19.8096H152.816V13.9818H145.54V19.8096H144.575V7.29593H145.54V13.0165H152.816V7.29593ZM159.552 18.8621H165.505V19.8096H158.604V7.29593H165.344V8.26127H159.552V12.8556H164.932V13.803H159.552V18.8621ZM181.337 7.29593H182.284V19.8096H181.337V9.08359L176.26 16.6275H175.813L170.736 9.08359V19.8096H169.788V7.29593H170.736L176.045 15.1259L181.337 7.29593ZM197.039 7.29593L192.105 15.3047V19.8096H191.158V15.3047L186.224 7.29593H187.35L191.64 14.4108L195.931 7.29593H197.039Z" fill="#FDC490"/>
</svg>
