<?xml version="1.0" encoding="UTF-8"?>
<svg xmlns="http://www.w3.org/2000/svg" width="148" height="59" viewBox="0 0 148 59" fill="none">
  <path d="M104.27 39.2464C104.157 39.2627 104.081 39.264 104.009 39.2866C103.041 39.5917 102.072 39.8905 101.109 40.212C100.185 40.5208 99.2366 40.7368 98.2886 40.9477C97.4649 41.1311 96.6375 41.3031 95.81 41.4688C95.1031 41.6094 94.395 41.7476 93.6843 41.8631C93.1808 41.9447 92.6723 41.9874 92.165 42.0451C91.6716 42.1016 91.1794 42.1619 90.6847 42.2071C90.3419 42.2385 89.9966 42.2498 89.6538 42.2686C89.198 42.2925 88.7422 42.3251 88.2865 42.3352C87.9022 42.344 87.5168 42.3264 87.1326 42.3189C86.9932 42.3163 86.8551 42.3063 86.7157 42.2988C85.4099 42.2322 84.094 42.246 82.8007 42.0803C81.0642 41.858 79.3554 41.4563 77.8097 40.5711C76.4248 39.7788 75.3475 38.6776 74.6192 37.2512C74.1283 36.2907 73.8332 35.2712 73.6713 34.2014C73.5557 33.4342 73.5783 32.6683 73.6185 31.9086C73.6549 31.2193 73.8144 30.535 73.9487 29.8532C74.3254 27.9435 75.065 26.158 75.9313 24.4315C76.6106 23.0793 77.3703 21.7659 78.1475 20.4663C78.5706 19.7594 79.1005 19.1141 79.5927 18.4498C80.0459 17.8371 80.4967 17.2206 80.9801 16.633C81.579 15.9035 82.1968 15.1878 82.8334 14.4909C83.5441 13.7125 84.2623 12.939 85.0181 12.2045C85.9649 11.2854 86.9493 10.4052 87.9236 9.51623C88.6845 8.82188 89.4441 8.12628 90.2239 7.45327C90.8969 6.87318 91.5711 6.28682 92.2956 5.77453C92.8129 5.40915 93.4018 5.13292 93.9844 4.87175C94.4465 4.66458 94.793 4.82279 95.0805 5.24718C95.343 5.63516 95.461 6.07713 95.5953 6.51534C95.6757 6.7765 95.849 7.02386 95.8703 7.28628C95.8904 7.54493 95.7435 7.81112 95.7196 8.07856C95.6292 9.06923 95.3969 10.0185 94.9487 10.9087C94.6976 11.4059 94.454 11.9056 94.1853 12.3941C94.0321 12.6728 93.8312 12.9239 93.6642 13.1964C93.4834 13.4915 93.3064 13.789 93.1482 14.0954C92.9008 14.5763 92.5379 14.7508 92.0257 14.565C91.89 14.516 91.7607 14.3629 91.6954 14.226C91.5134 13.8393 91.5648 13.4325 91.7256 13.0558C92.0257 12.3526 92.3496 11.6583 92.6773 10.9677C92.8556 10.591 93.0502 10.2206 93.2599 9.86152C93.5412 9.38188 93.8337 8.90726 94.1426 8.4452C94.2644 8.26314 94.346 8.08735 94.3335 7.86637C94.3083 7.42691 94.4025 6.97866 94.2292 6.51283C94.0949 6.57561 93.9668 6.62458 93.8488 6.69238C93.1595 7.08915 92.5116 7.53865 91.9164 8.07229C91.2221 8.69381 90.4863 9.26888 89.7806 9.88035C89.0348 10.527 88.2877 11.1736 87.5695 11.8517C86.5198 12.8436 85.4865 13.8556 84.4632 14.8751C84.0501 15.287 83.6746 15.7365 83.2942 16.1797C82.7518 16.8113 82.2106 17.4454 81.6883 18.0933C81.348 18.5151 81.0366 18.9596 80.724 19.4016C79.9078 20.5542 79.0955 21.7106 78.4438 22.97C78.042 23.746 77.6025 24.5044 77.2233 25.2929C76.6947 26.394 76.2289 27.5241 75.8497 28.688C75.5208 29.6963 75.2797 30.7284 75.1554 31.7781C74.9143 33.8247 75.1403 35.791 76.3871 37.5187C76.9634 38.3172 77.6929 38.9476 78.5731 39.4184C79.9367 40.1454 81.4095 40.4455 82.9137 40.6765C83.9069 40.8285 84.8976 40.8737 85.8983 40.8699C86.3265 40.8699 86.7571 40.949 87.184 40.9339C88.0554 40.905 88.9256 40.8435 89.7957 40.782C90.6269 40.723 91.4581 40.6577 92.2868 40.5748C92.6999 40.5334 93.1105 40.4505 93.5198 40.3802C94.3812 40.232 95.2412 40.0751 96.1026 39.932C96.8798 39.8026 97.6395 39.6017 98.3991 39.3971C99.3772 39.1334 100.353 38.8609 101.321 38.5646C102.025 38.3486 102.716 38.0887 103.411 37.8489C103.739 37.7359 104.066 37.6166 104.397 37.5174C104.55 37.471 104.621 37.3969 104.656 37.2374C104.883 36.1815 105.123 35.1268 105.366 34.0331C104.636 33.9942 104.225 33.5485 104.067 32.775C103.874 32.9445 103.744 33.0651 103.606 33.1768C103.305 33.4217 103.012 33.6803 102.691 33.8988C102.201 34.2315 101.559 34.1763 101.112 33.7958C101.07 33.7607 101.026 33.7268 100.961 33.6753C100.801 33.772 100.642 33.8774 100.475 33.9666C100.131 34.1499 99.784 34.3269 99.4362 34.5002C99.0834 34.676 98.718 34.7036 98.3426 34.5781C98.1003 34.4964 97.8906 34.504 97.6332 34.6245C96.9715 34.9334 96.2495 35.0514 95.5213 34.9811C94.788 34.9095 94.2757 34.4676 93.9442 33.831C93.7873 33.5296 93.6969 33.1931 93.5562 32.8215C93.3792 33.0864 93.216 33.3325 93.0515 33.5786C92.7413 34.0394 92.4274 34.4977 92.1223 34.9623C91.9064 35.2912 91.5837 35.4243 91.2108 35.3101C90.9709 35.236 90.7663 35.3691 90.598 35.467C90.0393 35.7935 89.4328 35.9605 88.8101 35.9718C87.9136 35.9881 87.0962 35.7521 86.6266 34.8731C86.6065 34.8367 86.5801 34.8041 86.56 34.7739C86.1344 35.0866 85.7401 35.3904 85.3308 35.6729C84.2497 36.42 83.0242 36.6938 81.7372 36.6724C81.3191 36.6661 80.8872 36.5242 80.4904 36.3723C79.9242 36.1551 79.4972 35.3929 79.5085 34.7915C79.5148 34.4826 79.6617 34.2616 79.879 34.0783C80.1125 33.8825 80.3561 33.9377 80.4992 34.2114C80.5633 34.3345 80.6085 34.4676 80.6587 34.5969C80.7842 34.9196 81.0278 35.0602 81.3668 35.0853C82.2759 35.1531 83.136 34.9736 83.9459 34.5642C84.6942 34.1863 85.3873 33.7318 85.9762 33.1191C86.2737 32.8102 86.447 32.4448 86.6316 32.0694C86.9128 31.4981 87.1966 30.9192 87.5557 30.3956C87.9223 29.8608 88.3229 30.0052 88.6619 30.3316C89.2005 30.8502 89.2206 31.0071 88.8063 31.6437C88.5037 32.1083 88.24 32.603 88.0027 33.1052C87.8884 33.3476 87.8633 33.6364 87.8194 33.9063C87.7892 34.0984 87.911 34.2039 88.0818 34.2817C88.4685 34.4588 88.8527 34.3596 89.2269 34.2742C90.1887 34.057 90.8969 33.4794 91.4066 32.6507C92.047 31.6086 92.6798 30.5626 93.3139 29.518C93.4344 29.3196 93.5839 29.1827 93.8262 29.1325C94.0221 29.0911 94.2091 28.9994 94.395 28.9203C94.744 28.7722 95.3442 29.0522 95.5012 29.4263C95.7008 29.8997 95.6694 30.358 95.5175 30.8439C95.3291 31.4504 95.073 32.0455 95.122 32.7085C95.1559 33.1592 95.3254 33.3714 95.7761 33.4078C96.1428 33.4367 96.5119 33.4468 96.9062 33.4669C96.9162 33.3714 96.9476 33.2886 96.9288 33.2195C96.7706 32.5967 96.856 31.994 97.146 31.4391C97.8077 30.1734 98.7481 29.1375 99.8945 28.2925C100.158 28.0979 100.476 27.9761 100.783 27.8116C100.908 27.838 100.991 28.0853 101.197 27.9196C101.224 27.897 101.401 28.0213 101.477 28.1067C101.603 28.2498 101.704 28.4168 101.857 28.6328C102.01 28.3189 102.137 28.064 102.26 27.8079C102.61 27.0846 102.963 26.3614 103.306 25.6344C103.364 25.5114 103.41 25.3682 103.408 25.2351C103.401 24.9112 103.601 24.7203 103.82 24.5483C104.014 24.3951 104.175 24.4391 104.375 24.6061C104.911 25.0556 105.045 25.6055 104.799 26.2484C104.646 26.6489 104.464 27.0369 104.299 27.4337C104.033 28.0753 103.764 28.7169 103.508 29.3623C103.185 30.1747 102.912 31.0071 102.441 31.753C102.384 31.8421 102.347 31.9413 102.347 32.0857C102.446 32.0267 102.556 31.9802 102.643 31.9061C103.316 31.3248 104.008 30.756 104.533 30.034C104.908 29.518 105.209 28.9504 105.546 28.4068C105.619 28.29 105.712 28.1833 105.776 28.0627C105.944 27.7476 106.255 27.8669 106.508 27.8154C106.547 27.8079 106.612 27.8568 106.645 27.8957C106.881 28.1795 107.045 28.5009 107.059 28.8739C107.064 28.9994 107.01 29.1413 106.945 29.2543C106.591 29.8658 106.211 30.4635 105.869 31.08C105.704 31.375 105.567 31.6952 105.562 32.1196C105.978 31.9187 106.27 31.6789 106.481 31.3449C106.689 31.0159 106.888 30.6819 107.077 30.3417C107.515 29.5544 108.134 28.9178 108.777 28.3013C108.823 28.2561 108.891 28.226 108.955 28.2084C109.121 28.1632 109.29 28.128 109.515 28.0766C109.647 28.2887 109.799 28.5336 109.951 28.7784C110.099 29.0183 110.065 29.2443 109.907 29.4665C109.17 30.4948 108.433 31.5232 107.701 32.5565C107.589 32.7135 107.487 32.883 107.413 33.06C106.928 34.2177 106.581 35.4181 106.298 36.6398C106.289 36.6787 106.289 36.7189 106.281 36.8017C106.387 36.7741 106.474 36.759 106.555 36.7289C107.216 36.4778 107.883 36.2417 108.533 35.9642C108.94 35.791 109.317 35.5474 109.713 35.349C109.924 35.2435 110.15 35.1707 110.366 35.0753C110.65 34.9497 110.881 34.7664 111.051 34.4964C111.509 33.7669 111.999 33.0563 112.443 32.3192C112.729 31.8459 112.968 31.3436 113.211 30.8452C113.412 30.4346 113.592 30.0139 113.773 29.5933C114.001 29.0584 114.242 28.5286 114.439 27.9824C114.717 27.2152 114.977 26.4405 115.208 25.6583C115.352 25.1673 115.445 24.6588 115.531 24.1528C115.68 23.2688 115.854 22.3836 115.926 21.4922C115.976 20.8619 115.924 20.2102 115.824 19.5837C115.73 18.9835 115.524 18.4009 115.351 17.8145C115.301 17.6437 115.227 17.4642 115.112 17.3324C114.915 17.1063 114.923 16.8866 115.035 16.6393C115.073 16.5514 115.104 16.4597 115.139 16.3668C115.465 16.25 115.686 16.3605 115.922 16.6292C116.509 17.2959 116.834 18.0694 117.057 18.9132C117.362 20.0671 117.373 21.2172 117.165 22.3874C117.04 23.0968 116.991 23.8188 116.882 24.532C116.825 24.9011 116.73 25.2665 116.624 25.6244C116.191 27.0896 115.739 28.5487 115.09 29.9374C114.696 30.7786 114.314 31.6261 113.903 32.4586C113.725 32.8177 113.485 33.1467 113.275 33.4895C113.237 33.5535 113.209 33.6251 113.227 33.7544C113.402 33.6615 113.578 33.5711 113.751 33.4744C113.861 33.4141 113.956 33.3149 114.073 33.2823C114.559 33.1492 114.962 32.8478 115.411 32.6407C115.979 32.3782 116.54 32.1008 117.101 31.8233C117.797 31.4792 118.489 31.1277 119.186 30.7861C119.37 30.6957 119.57 30.633 119.762 30.5576C119.801 30.5426 119.846 30.535 119.876 30.5099C120.54 29.9461 121.36 29.6498 122.106 29.2254C123.044 28.6931 124.012 28.2159 124.964 27.7074C125.362 27.4939 125.747 27.2579 126.139 27.0344C126.629 26.7557 127.12 26.4807 127.608 26.2019C127.84 26.0701 128.108 26.0211 128.308 25.8027C128.485 25.6093 128.765 25.5352 128.984 25.3695C129.348 25.0957 129.782 24.9175 130.177 24.6839C130.677 24.3901 131.164 24.0775 131.665 23.7849C131.803 23.7045 131.969 23.6719 132.12 23.6104C132.195 23.5802 132.271 23.5451 132.333 23.4949C132.513 23.3505 132.672 23.1759 132.863 23.0504C133.37 22.7189 133.89 22.4075 134.405 22.0861C134.788 21.8462 135.163 21.5926 135.555 21.3666C135.757 21.2498 135.986 21.1808 136.233 21.0778V20.9058C136.854 20.4902 137.462 20.0796 138.074 19.6766C138.542 19.3677 139.018 19.0701 139.49 18.765C139.548 18.7286 139.602 18.6846 139.648 18.6344C139.843 18.4247 140.078 18.2929 140.371 18.2527C140.443 17.9438 140.688 17.7932 140.95 17.6814C141.095 17.6199 141.288 17.6488 141.273 17.4089C141.833 17.0272 142.329 16.5463 142.972 16.2927C143.186 16.2073 143.379 16.1019 143.458 15.8721C143.547 15.6134 143.772 15.4778 143.98 15.3799C144.399 15.1815 144.721 14.8626 145.092 14.6102C145.693 14.2009 146.112 13.6246 146.638 13.1525C146.798 13.0093 146.985 12.8963 147.189 12.7469C147.147 12.6176 147.282 12.5334 147.428 12.4757C147.562 12.4229 147.707 12.3966 147.875 12.3514C147.877 12.6188 147.73 12.8461 147.596 13.0633C147.256 13.6158 146.858 14.1243 146.407 14.5951C145.929 15.0961 145.478 15.6222 145.011 16.1333C144.93 16.2211 144.819 16.2814 144.726 16.3593C144.32 16.6945 143.925 17.0423 143.509 17.3637C143.168 17.6274 142.87 17.9426 142.534 18.205C142.113 18.5327 141.724 18.9094 141.275 19.1906C140.854 19.4568 140.516 19.821 140.095 20.0821C139.671 20.3458 139.261 20.6321 138.851 20.9171C138.364 21.2561 137.9 21.6341 137.394 21.9442C136.568 22.4502 135.841 23.1081 134.948 23.5137C134.678 23.6355 134.465 23.8753 134.208 24.0323C133.762 24.3035 133.297 24.5445 132.849 24.812C132.518 25.0091 132.201 25.2314 131.875 25.436C131.345 25.7688 130.811 26.0927 130.283 26.4254C129.841 26.7042 129.406 26.9942 128.965 27.273C128.78 27.3897 128.585 27.4914 128.393 27.5982C127.353 28.1745 126.312 28.7508 125.273 29.3271C124.084 29.9863 122.902 30.6606 121.702 31.3009C120.331 32.033 118.951 32.7512 117.56 33.4468C116.353 34.0495 115.126 34.6107 113.912 35.1971C113.474 35.408 113.049 35.6478 112.613 35.8588C112.414 35.9555 112.201 36.0258 111.99 36.0923C111.595 36.2166 111.277 36.4276 111.017 36.7616C110.583 37.319 110.115 37.8489 109.663 38.3913C109.334 38.7856 109.018 39.1911 108.674 39.5729C108.274 40.0161 107.854 40.4405 107.437 40.8661C107.156 41.1537 106.866 41.4324 106.576 41.7111C106.228 42.0451 105.886 42.3879 105.52 42.7018C105.304 42.8876 105.191 43.1011 105.158 43.3761C105.046 44.2989 104.943 45.2243 104.814 46.1447C104.622 47.507 104.445 48.8731 104.196 50.2266C104.008 51.2487 103.757 52.2632 103.455 53.2577C103.256 53.9181 102.937 54.5459 102.644 55.175C102.229 56.069 101.627 56.8374 100.89 57.484C100.193 58.0955 99.3935 58.5136 98.4744 58.7346C97.3996 58.992 96.3148 59.0071 95.2488 58.8438C94.3661 58.7082 93.4759 58.4521 92.7451 57.8871C92.2002 57.4652 91.826 56.8964 91.5774 56.2447C91.4343 55.8706 91.3765 55.4826 91.3313 55.0908C91.3225 55.0117 91.3338 54.9213 91.3614 54.8473C91.6239 54.1529 91.8499 53.4397 92.2667 52.817C92.4639 52.5219 92.6999 52.2519 92.9096 51.9644C93.0025 51.8376 93.0552 51.6794 93.1582 51.5639C93.4608 51.2236 93.7835 50.9009 94.0899 50.5631C94.9211 49.6466 95.8552 48.848 96.8472 48.111C97.603 47.5497 98.3539 46.9797 99.0972 46.4008C99.6886 45.9413 100.296 45.4968 100.837 44.982C101.249 44.5902 101.763 44.3492 102.167 43.9549C102.575 43.5594 103.005 43.184 103.447 42.8261C103.671 42.6441 103.773 42.4193 103.815 42.1556C103.922 41.4839 104.02 40.8096 104.125 40.1379C104.169 39.8529 104.219 39.5691 104.273 39.2451L104.27 39.2464ZM103.492 44.4446C103.38 44.5249 103.31 44.5664 103.249 44.6191C102.882 44.9456 102.526 45.2871 102.147 45.5972C101.852 45.8383 101.509 46.0191 101.22 46.2652C100.8 46.6231 100.373 46.9658 99.9171 47.2797C99.4287 47.615 98.9716 47.9992 98.4995 48.3596C98.2572 48.5454 98.0036 48.7174 97.7688 48.9108C97.4913 49.1393 97.2452 49.413 96.9526 49.6177C96.2658 50.0998 95.7247 50.7352 95.1207 51.3052C94.4929 51.8991 93.9819 52.5884 93.5449 53.3292C93.3126 53.7222 93.0565 54.1178 92.9222 54.5472C92.5392 55.7726 92.7978 56.4155 93.8287 57.0019C94.1137 57.1638 94.4339 57.2668 94.7403 57.3911C95.4396 57.6749 96.1842 57.7138 96.9087 57.6347C98.4719 57.4639 99.7451 56.7382 100.686 55.455C101.351 54.5472 101.801 53.5226 102.114 52.4641C102.497 51.1759 102.78 49.8537 103.021 48.5316C103.253 47.2509 103.379 45.9513 103.547 44.6593C103.553 44.6103 103.523 44.5563 103.493 44.4433L103.492 44.4446ZM108.679 37.5714C108.396 37.6957 108.187 37.7987 107.969 37.879C107.358 38.1063 106.743 38.3235 106.13 38.547C106.002 38.5935 105.866 38.6199 105.841 38.8032C105.791 39.1598 105.715 39.5126 105.659 39.8692C105.609 40.1868 105.572 40.507 105.53 40.8259C105.556 40.8385 105.582 40.8511 105.61 40.8636C106.653 39.8202 107.706 38.7843 108.679 37.5727V37.5714ZM100.819 29.6737C100.792 29.6561 100.766 29.6373 100.738 29.6197C100.694 29.6435 100.643 29.6611 100.605 29.6938C99.9209 30.2877 99.3471 30.9845 98.8247 31.7178C98.6 32.033 98.3413 32.3669 98.3803 32.8127C98.5874 32.6909 98.7808 32.5766 99.0244 32.4322C98.9942 32.6344 98.9742 32.7675 98.9465 32.9533C99.1738 32.8529 99.3395 32.7813 99.5028 32.7072C99.5279 32.6959 99.5605 32.6783 99.5681 32.657C99.6133 32.5289 99.6308 32.387 99.6974 32.2715C99.7928 32.107 99.9209 31.9614 100.038 31.8095C100.097 31.7341 100.166 31.6663 100.223 31.5897C100.66 31.0209 100.663 30.3253 100.817 29.6737H100.819Z" fill="#FFC300"></path>
  <path d="M5.68679 14.8821C5.01379 14.6937 4.89451 14.3133 4.97989 13.4921C5.04518 12.8505 5.26616 12.2428 5.565 11.684C5.80482 11.237 6.13755 10.8353 6.46401 10.441C6.96876 9.83077 7.49486 9.23813 8.02472 8.64925C8.25575 8.39185 8.50813 8.15078 8.77181 7.92728C9.06562 7.67742 9.38454 7.45517 9.69091 7.21786C9.74239 7.17769 9.78131 7.12118 9.82024 7.06845C9.86795 7.00316 9.89557 6.89894 9.9571 6.87257C10.5949 6.5976 11.0143 6.01876 11.6157 5.69733C11.7426 5.62953 11.8794 5.58307 12.0527 5.50899C12.0439 5.36208 12.1218 5.21643 12.3289 5.12352C12.5876 5.008 12.801 4.77069 13.1262 4.85482C13.2217 4.66774 13.5506 4.76065 13.5757 4.47312C13.5808 4.40908 13.6749 4.33751 13.744 4.29733C13.9537 4.17679 14.1207 3.95581 14.4057 3.99975C14.4923 3.72854 14.6983 3.662 14.9544 3.67204C14.9883 3.67204 15.0335 3.64316 15.0561 3.61428C15.311 3.30038 15.6475 3.12962 16.0191 2.98021C16.4611 2.80316 16.8704 2.54326 17.3011 2.33357C17.5485 2.21303 17.8109 2.12388 18.0658 2.0159C18.3043 1.9142 18.5504 1.82505 18.7764 1.69823C18.9485 1.60155 19.0878 1.64801 19.1858 1.70702C19.4482 1.56012 19.6616 1.36048 19.9002 1.32532C20.2731 1.27007 20.6134 1.17716 20.9286 0.973752C21.0051 0.924783 21.1181 0.898416 21.2085 0.90846C21.8213 0.977518 22.3725 0.732676 22.9438 0.583259C23.7348 0.374829 24.5346 0.206578 25.347 0.101108C25.4663 0.0860405 25.5919 0.122453 25.7149 0.141287C25.9434 0.1777 26.1556 0.230435 26.3829 0.0684621C26.5938 -0.0822103 26.8424 0.0508836 27.0571 0.133753C27.2719 0.216623 27.4602 0.325861 27.6347 0.0596728C27.6699 0.00693751 27.8155 0.00819312 27.9084 0.0132155C28.697 0.0609284 29.4855 0.104875 30.2727 0.16891C31.286 0.25178 32.2704 0.490345 33.2523 0.747743C34.3183 1.02774 35.3429 1.422 36.3524 1.85267C36.9387 2.10254 37.5151 2.37877 38.0839 2.66756C38.8159 3.03796 39.4952 3.49626 40.1631 3.97464C41.1613 4.69034 42.0553 5.52782 42.9368 6.37536C43.8295 7.23419 44.623 8.18342 45.3186 9.21176C46.1863 10.4937 46.9308 11.8435 47.58 13.2485C48.2831 14.7703 48.754 16.3612 49.103 17.9972C49.3215 19.0205 49.442 20.0489 49.5174 21.0898C49.5877 22.0666 49.4897 23.0322 49.4332 24.0028C49.3617 25.2458 49.0917 26.455 48.764 27.6428C48.4476 28.7891 48.0508 29.9192 47.4958 30.9864C47.0978 31.7511 46.6872 32.5057 46.19 33.2088C45.5497 34.1154 44.8327 34.9491 43.9965 35.6924C43.3612 36.2562 42.7007 36.7722 42.0089 37.2619C41.6297 37.5306 41.2844 37.8521 40.87 38.0756C40.1167 38.4811 39.4035 38.9608 38.5848 39.2458C37.7323 39.5434 36.9036 39.9113 36.0435 40.18C34.7603 40.5817 33.4507 40.8693 32.1072 41.0262C30.8754 41.1694 29.6437 41.2485 28.4069 41.2937C27.022 41.3439 25.6446 41.2723 24.2659 41.1342C23.0329 41.0112 21.8175 40.8065 20.6121 40.5278C19.8023 40.3407 18.9874 40.1787 18.1813 39.9765C16.9696 39.6727 15.7906 39.2734 14.6455 38.7674C13.7716 38.3807 12.8525 38.0931 11.9861 37.6888C11.0733 37.2632 10.1957 36.7584 9.30921 36.2775C8.38006 35.774 7.5049 35.1852 6.65863 34.5523C5.69684 33.8341 4.78903 33.0557 3.96159 32.1843C3.53218 31.7323 3.08142 31.2978 2.68088 30.8207C1.69774 29.653 0.906711 28.3635 0.389403 26.9233C0.0805247 26.0657 -0.0701476 25.1567 0.0315562 24.2627C0.13326 23.3611 0.37308 22.4659 0.902945 21.6899C1.17415 21.2932 1.43783 20.8914 1.72913 20.5097C1.92752 20.2485 2.15478 20.0062 2.38958 19.7764C3.2798 18.9012 4.30186 18.2232 5.4545 17.736C5.70939 17.6281 5.93666 17.456 6.19154 17.3506C7.37809 16.8596 8.62239 16.5935 9.8805 16.3599C11.2692 16.1025 12.6705 16.0699 14.0717 16.0661C14.761 16.0636 15.4504 16.1891 16.1409 16.2155C17.3463 16.262 18.5015 16.5859 19.6667 16.837C20.6561 17.0492 21.6254 17.3581 22.5633 17.7536C23.2665 18.0499 23.9797 18.3199 24.723 18.6162C24.8159 18.443 24.9302 18.2421 25.0369 18.0349C25.7275 16.6876 26.4896 15.3743 27.022 13.9492C27.3321 13.1179 27.6611 12.2955 27.9838 11.4693C28.039 11.3287 28.0993 11.1893 28.1608 11.0512C28.2688 10.8076 28.476 10.7009 28.7736 10.7298C29.0586 10.7574 29.2105 10.8729 29.2306 11.1768C29.2494 11.4631 29.2406 11.7669 29.1678 12.0419C28.8577 13.2096 28.4446 14.3459 27.9888 15.4647C27.7377 16.0812 27.4753 16.6952 27.1965 17.3004C26.8889 17.9696 26.5587 18.6275 26.2197 19.3282C26.3038 19.3972 26.3766 19.4738 26.4645 19.5265C27.3811 20.0777 28.3215 20.5925 29.2155 21.1789C30.6017 22.0867 31.8875 23.1251 33.1016 24.2564C34.2116 25.291 35.1583 26.4499 35.9179 27.7558C36.3348 28.4727 36.6826 29.2323 37.0354 29.9845C37.3179 30.5871 37.5565 31.2112 37.8265 31.8201C37.9545 32.1064 38.0763 32.3776 37.8428 32.6689C37.8051 32.7154 37.8114 32.7957 37.7976 32.8573C37.5778 32.8422 37.3782 32.8133 37.1798 32.8183C37.0116 32.8221 36.94 32.7279 36.8521 32.6099C36.3612 31.9445 36.0146 31.2011 35.6605 30.4616C34.8394 28.7427 33.8286 27.1518 32.4713 25.802C31.4053 24.7423 30.2275 23.8144 29.0096 22.9317C28.0943 22.2688 27.1262 21.6962 26.1569 21.1224C26.0376 21.0521 25.9146 20.9906 25.7727 20.914C25.4952 21.3572 25.0494 21.3861 24.6062 21.371C24.1981 21.3572 23.8679 21.0508 23.893 20.6566C23.9269 20.1142 23.6758 19.8794 23.2024 19.681C21.9958 19.1737 20.7678 18.733 19.5085 18.3877C18.1938 18.0261 16.8566 17.785 15.4943 17.6469C14.4534 17.5414 13.4163 17.4849 12.3741 17.5264C10.6301 17.5954 8.92248 17.8604 7.26759 18.4555C5.87136 18.9578 4.62581 19.6986 3.53343 20.6892C2.97594 21.194 2.53397 21.8029 2.15227 22.4596C1.83335 23.0096 1.59729 23.5897 1.53075 24.2074C1.44034 25.0524 1.51317 25.8937 1.83711 26.7036C2.21003 27.6377 2.6859 28.5016 3.28482 29.3165C3.82097 30.0472 4.43621 30.7027 5.05271 31.3518C5.90275 32.2458 6.85576 33.0393 7.86024 33.7575C8.50311 34.2171 9.18741 34.6176 9.85163 35.0483C11.1637 35.8996 12.5901 36.5249 14.0127 37.1565C15.4114 37.7767 16.8679 38.2375 18.3269 38.6858C18.9121 38.8653 19.5034 39.0248 20.0999 39.1579C20.7088 39.2935 21.3329 39.3663 21.9431 39.4969C23.2514 39.7782 24.5836 39.8761 25.9095 40.0217C26.5235 40.0883 27.1463 40.1121 27.7766 40.0469C28.6819 39.9514 29.5985 39.9665 30.5101 39.9238C30.7298 39.9138 30.9483 39.8623 31.1667 39.8284C31.7958 39.7317 32.4261 39.635 33.0552 39.5371C33.3791 39.4869 33.7031 39.4366 34.0257 39.3789C34.3798 39.3161 34.7892 39.3324 35.0717 39.1541C35.3316 38.9896 35.6342 38.9834 35.8577 38.8201C36.0184 38.7021 36.1841 38.9683 36.331 38.7297C36.4152 38.5941 36.6613 38.5577 36.8358 38.4799C36.9965 38.4083 37.161 38.3417 37.323 38.2727C37.5753 38.1647 37.8189 38.0278 38.0813 37.9575C38.2684 37.9073 38.4781 37.9475 38.743 37.9475C38.6614 37.8621 38.63 37.8282 38.5748 37.7704C38.6853 37.7089 38.7895 37.6512 38.8925 37.5934C39.0419 37.5093 39.1863 37.4126 39.342 37.341C39.5567 37.2418 39.7877 37.1778 39.9961 37.0673C40.2334 36.9417 40.5034 36.8476 40.6377 36.5801C40.649 36.5575 40.6754 36.5312 40.6993 36.5249C41.3045 36.3742 41.5732 35.7891 42.0516 35.4727C42.437 35.2166 42.7924 34.9165 43.1527 34.6239C43.2908 34.5122 43.4101 34.3753 43.5281 34.2397C44.4598 33.1724 45.3324 32.0713 45.9979 30.8031C46.9647 28.9611 47.6202 27.0338 47.9115 24.9759C48.0533 23.9689 48.1525 22.9606 48.1262 21.9436C48.1124 21.4024 48.1211 20.8562 48.0634 20.3201C48.0006 19.7425 47.8876 19.1687 47.7633 18.5999C47.5913 17.8177 47.4004 17.0392 47.1958 16.2645C46.9635 15.3906 46.6144 14.5619 46.2302 13.742C45.6803 12.5667 45.0198 11.4605 44.338 10.3594C43.4415 8.91167 42.2688 7.71383 41.0496 6.55114C40.1732 5.71491 39.2202 4.98164 38.1843 4.34756C37.1874 3.73608 36.1917 3.12962 35.083 2.73787C34.4012 2.4968 33.7181 2.25949 33.0238 2.05985C32.3596 1.869 31.6866 1.68693 31.0048 1.5777C30.1296 1.43832 29.2419 1.36801 28.358 1.2864C27.6109 1.21734 26.8613 1.21734 26.1129 1.28514C25.573 1.33411 25.0356 1.40066 24.4957 1.45339C23.0204 1.59904 21.5965 1.97698 20.1965 2.44155C19.4331 2.69518 18.6999 3.03922 17.939 3.30164C16.829 3.6846 15.8044 4.24209 14.7987 4.8272C13.852 5.37841 12.9517 6.01123 12.0314 6.60764C11.1311 7.1915 10.335 7.90593 9.53019 8.60782C8.93378 9.12889 8.37001 9.68512 7.90042 10.3318C7.54257 10.8252 7.12571 11.276 6.7641 11.7669C6.35854 12.3156 6.14509 12.9334 6.10867 13.629C6.08607 14.0647 5.97432 14.5029 5.69056 14.8858L5.68679 14.8821Z" fill="#FFC300"></path>
  <path d="M58.136 26.6835C58.7186 26.7927 58.7563 27.2874 58.8768 27.7181C58.8981 27.7922 58.8768 27.8876 58.8479 27.9642C58.6483 28.5003 58.3884 29.0126 58.0205 29.447C57.6187 29.9229 57.0788 30.2243 56.4962 30.4339C55.6399 30.7416 54.7597 30.9312 53.8418 30.8797C52.9403 30.8295 52.0878 30.626 51.3369 30.0949C51.3055 30.0723 51.2641 30.0648 51.18 30.0309C50.9765 30.5055 50.7731 30.9726 50.5773 31.4422C50.242 32.2483 49.9156 33.0594 49.5778 33.8642C49.1861 34.7972 48.7843 35.7263 48.3875 36.6567C48.2632 36.9493 48.1502 37.2468 48.0183 37.5356C47.8589 37.8847 47.2537 38.0517 46.9285 37.8445C46.3861 37.4992 46.2894 36.9355 46.6221 36.378C46.9059 35.9021 47.1357 35.3923 47.3868 34.8964C48.1904 33.3068 48.8445 31.6531 49.4899 29.9945C49.6054 29.6969 49.7473 29.4081 49.8779 29.1156C49.9005 29.0653 49.9143 28.9975 49.9545 28.9699C50.3513 28.705 50.5107 28.2592 50.7731 27.8989C51.2 27.821 51.519 27.9767 51.7651 28.3019C52.1179 28.7665 52.5862 29.0226 53.1575 29.1444C53.7477 29.27 54.3441 29.2913 54.9267 29.2022C55.5382 29.1093 56.1735 28.9875 56.6983 28.6384C57.3098 28.2316 57.7706 27.6704 58.0067 26.9547C58.033 26.8756 58.0607 26.7977 58.0933 26.7224C58.1033 26.6998 58.1322 26.6847 58.1385 26.6797L58.136 26.6835Z" fill="#FFC300"></path>
  <path d="M57.016 37.3599C56.6381 37.3574 56.387 37.1866 56.2514 36.864C56.0818 36.4584 56.0279 36.0704 56.3618 35.7088C56.5703 35.4841 56.7913 35.4188 57.0637 35.5556C57.1981 35.6234 57.3287 35.7063 57.4492 35.7979C57.905 36.1407 57.9489 36.5337 57.6388 37.0109C57.4756 37.2607 57.2772 37.3788 57.016 37.3612V37.3599Z" fill="#FFC300"></path>
  <path d="M90.4964 24.7088C91.1493 24.5631 91.6667 24.8557 91.8261 25.4609C91.9015 25.7484 91.747 26.0058 91.4896 26.1527C90.907 26.4867 90.4349 26.0824 90.3319 25.5387C90.2503 25.1093 90.2428 25.1106 90.4964 24.7088Z" fill="#FFC300"></path>
</svg>
